<svg id="Layer_1" data-name="Layer 1" xmlns="http://www.w3.org/2000/svg" viewBox="0 0 91.67 100"><title>recipe_book</title><path d="M26.08,72.92c7.67,0,6.58-19.5,3.25-28.33-1.67-4.5,8-3.17,6.25-19.58L34.25,12.92C34.08,11.67,33.33,11,32.5,11s-1.5.67-1.5,1.92V28.25a1.64,1.64,0,1,1-3.25,0V12.92c-.08-1.25-.83-1.92-1.67-1.92a1.74,1.74,0,0,0-1.67,1.92V28.25a1.64,1.64,0,1,1-3.25,0V12.92A1.59,1.59,0,0,0,19.67,11a2,2,0,0,0-1.75,1.92L16.67,25c-1.83,16.42,7.83,15.08,6.17,19.58C19.17,54.08,18.42,72.92,26.08,72.92Zm27.17,0c6.92,0,5.17-15.25,5.17-24.08l.08-35.17c0-2.17-1.08-3.25-2.67-3.25-3.92,0-10.58,6.5-10.58,20.17V44.92c0,4.92,6.75,1.83,6.75,4.42C46.5,57.42,46.25,72.92,53.25,72.92ZM91.67,100H20.83C10.42,100,0,95.83,0,83.33V12.5C0,0,0,0,12.5,0H75V83.33H8.33c0,6.25,4.17,8.33,8.33,8.33H83.33V8.33l8.33,8.33Z"/></svg>